<?xml version="1.0" encoding="UTF-8"?>
<svg id="Layer_1" xmlns="http://www.w3.org/2000/svg" xmlns:xlink="http://www.w3.org/1999/xlink" version="1.1" viewBox="0 0 314.5 39.7">
  <!-- Generator: Adobe Illustrator 29.3.1, SVG Export Plug-In . SVG Version: 2.1.0 Build 151)  -->
  <defs>
    <style>
      .st0 {
        fill: #0093d0;
        fill-rule: evenodd;
      }

      .st1 {
        fill: #fff;
      }
    </style>
  </defs>
  <path class="st0" d="M308.9,39.7c-1,0-1.8-.7-1.8-1.8s.8-1.7,1.8-1.7,1.7.7,1.7,1.7-.8,1.8-1.7,1.8h0ZM307.5,37.9c0,.8.6,1.5,1.4,1.5s1.4-.6,1.4-1.5-.6-1.5-1.4-1.5c-.8,0-1.4.7-1.4,1.5h0ZM308.5,38.1v.9h-.3v-2h.8c.5,0,.7.2.7.6s-.2.5-.5.6l.6.9h-.3l-.5-.9h-.5ZM308.5,37.8h.4c.3,0,.5,0,.5-.3s-.2-.3-.4-.3h-.4v.6h-.1ZM303.5,39.6v-11h11V11h-11V0h-17.5v11h-11v17.6h11v11h17.5ZM0,2.3h6.3v29.1H0V2.3ZM10.7,9h5.7l.3,2.6c1.6-1.7,4-3.1,6.8-3.1,5,0,7.1,3.1,7.1,8.1v14.7h-6.1v-14.9c0-2-.8-3.4-2.9-3.4s-3.5,1-4.8,2.6v15.6h-6.1s0-22.2,0-22.2ZM33.6,19.9c0-7.5,3.5-11.4,8.7-11.4s4.7,1.2,6.4,3V0h6.1v31.3h-5.4l-.4-2.6c-1.7,1.8-3.9,3.1-6.8,3.1-5.1,0-8.6-4-8.6-11.9ZM48.7,25v-9.5c-1.3-1.5-2.8-2.3-4.6-2.3-2.9,0-4.4,2.4-4.4,6.8s1.4,7.2,4.4,7.2,3.2-.7,4.6-2.2ZM68.9,8.5c6.4,0,9.9,4.2,9.9,10.2s0,2-.2,2.7h-14.7c.3,3.8,2.1,5.6,5.5,5.6s4.3-.7,6.2-1.9l2.5,3.9c-2.7,1.9-5.9,2.9-9.2,2.9-6.6,0-11.2-4.4-11.2-11.8,0-7.2,5-11.6,11.2-11.6ZM64.1,17.9h9c0-2.8-1.1-5-4-5s-4.4,1.8-5,5ZM88,39.6h-6V9h5.5l.5,2.7c1.7-1.9,3.9-3.2,6.5-3.2,5.1,0,8.6,3.9,8.6,11.4s-3.5,11.9-8.5,11.9-4.9-1.2-6.6-2.9v10.7ZM92.6,27.2c2.9,0,4.4-2.9,4.4-7.2s-1.5-6.8-4.4-6.8-3.3.8-4.6,2.3v9.5c1.4,1.5,2.8,2.2,4.6,2.2ZM116.3,8.5c6.4,0,9.9,4.2,9.9,10.2s0,2-.2,2.7h-14.7c.3,3.8,2.1,5.6,5.5,5.6s4.3-.7,6.2-1.9l2.5,3.9c-2.7,1.9-5.9,2.9-9.2,2.9-6.6,0-11.2-4.4-11.2-11.8,0-7.2,5-11.6,11.2-11.6ZM111.4,17.9h9c0-2.8-1.1-5-4-5s-4.4,1.8-5,5ZM129.3,9h5.7l.3,2.6c1.6-1.7,4-3.1,6.8-3.1,5,0,7.1,3.1,7.1,8.1v14.7h-6.1v-14.9c0-2-.8-3.4-2.9-3.4s-3.5,1-4.8,2.6v15.6h-6.1V9ZM152.2,19.9c0-7.5,3.5-11.4,8.7-11.4s4.7,1.2,6.4,3V0h6.1v31.3h-5.4l-.4-2.6c-1.7,1.8-3.9,3.1-6.8,3.1-5.1,0-8.6-4-8.6-11.9ZM167.3,25v-9.5c-1.3-1.5-2.8-2.3-4.6-2.3-2.9,0-4.4,2.4-4.4,6.8s1.4,7.2,4.4,7.2,3.2-.7,4.6-2.2ZM187.6,8.5c6.4,0,9.9,4.2,9.9,10.2s-.1,2-.2,2.7h-14.7c.3,3.8,2.1,5.6,5.5,5.6s4.3-.7,6.2-1.9l2.5,3.9c-2.7,1.9-5.9,2.9-9.2,2.9-6.6,0-11.2-4.4-11.2-11.8,0-7.2,5-11.6,11.2-11.6ZM182.7,17.9h9c0-2.8-1.1-5-4-5s-4.4,1.8-5,5ZM200.6,9h5.7l.3,2.6c1.6-1.7,4-3.1,6.8-3.1,5,0,7.1,3.1,7.1,8.1v14.7h-6.1v-14.9c0-2-.8-3.4-2.9-3.4s-3.5,1-4.8,2.6v15.6h-6.1V9ZM234.6,8.6c2.7,0,5.4.8,7.9,2.7l-3.1,3.9c-1.3-1-2.8-1.7-4.6-1.7-2.9,0-5.4,2.3-5.4,6.6s2.4,6.9,5.4,6.9,3.3-.7,4.7-1.8l3.3,3.5c-2.4,2.2-5,3.2-8.2,3.2-6.5,0-11.3-4.4-11.3-11.8,0-7.2,4.8-11.5,11.3-11.5ZM254.1,8.5c6.4,0,9.9,4.2,9.9,10.2s-.1,2-.2,2.7h-14.7c.3,3.8,2.1,5.6,5.5,5.6s4.3-.7,6.2-1.9l2.5,3.9c-2.7,1.9-5.9,2.9-9.2,2.9-6.6,0-11.2-4.4-11.2-11.8s5-11.6,11.2-11.6ZM249.2,17.9h9c0-2.8-1.1-5-4-5s-4.4,1.8-5,5Z"/>
  <path class="st1" d="M284.6,16l7.3.7c1.4.2,1.5,1.5,1.2,2.3l-5,9.4h0c-2.5-2-4.2-5.1-4.2-8.6s.2-2.6.7-3.8h0ZM285.4,19.8c0,2.3.9,4.5,2.3,6.1l3.9-7.4c.1-.2.1-.4-.3-.4l-5.5-.5c-.3.7-.4,1.5-.4,2.2ZM304.9,16c.5,1.2.7,2.5.7,3.8,0,3.5-1.6,6.6-4.2,8.6h0l-5-9.4c-.4-.8-.2-2.1,1.2-2.3l7.3-.7h0ZM303.8,17.6l-5.5.5c-.4,0-.4.2-.3.4l3.9,7.4c1.4-1.6,2.3-3.8,2.3-6.1,0-.7-.2-1.5-.4-2.2ZM294.7,30.7c-2.2,0-4.3-.7-6-1.8h0l5.3-7.9c.4-.6,1-.5,1.4,0l5.3,7.9h0c-1.7,1.1-3.8,1.8-6,1.8M294.9,22.8c-.1-.1-.2-.1-.3,0l-3.7,5.6c1.2.5,2.5.8,3.8.8s2.6-.3,3.8-.8l-3.6-5.6c-.1-.1-.2-.1-.3,0M301.8,13.8h-4.9c-.1,0-.1-.1,0-.2.5-.6,1-1.8.4-2.7,1.8.5,3.4,1.5,4.5,2.9ZM294.7,9c-4.4,0-8.1,2.6-9.8,6.3h7.7c1.1,0,1.6-.7,1.6-1.2s-.1-.8-.6-1.5c-.6-.7-.2-2.2,1.1-2.2s1.7,1.5,1.1,2.2c-.5.7-.6.9-.6,1.5s.5,1.2,1.6,1.2h7.7c-1.7-3.8-5.4-6.3-9.8-6.3ZM292.1,10.8c-.6.9-.1,2.1.4,2.7.1.1,0,.2,0,.2h-4.9c1.2-1.3,2.8-2.3,4.5-2.9Z"/>
</svg>